<?xml version="1.0" encoding="UTF-8" standalone="no"?>
<!DOCTYPE svg PUBLIC "-//W3C//DTD SVG 1.1//EN" "http://www.w3.org/Graphics/SVG/1.1/DTD/svg11.dtd">
<svg xmlns="http://www.w3.org/2000/svg" version="1.1" viewBox="0.00 0.00 662.00 625.00">
<g stroke-width="2.00" fill="none" stroke-linecap="butt">
<path stroke="#808080" vector-effect="non-scaling-stroke" d="
  M 661.72 0.48
  A 0.26 0.26 0.0 0 0 661.46 0.22
  L 0.46 0.22
  A 0.26 0.26 0.0 0 0 0.20 0.48
  L 0.20 0.54
  A 0.26 0.26 0.0 0 0 0.46 0.80
  L 661.46 0.80
  A 0.26 0.26 0.0 0 0 661.72 0.54
  L 661.72 0.48"
/>
<path stroke="#808080" vector-effect="non-scaling-stroke" d="
  M 287.88 98.00
  A 0.38 0.38 0.0 0 1 288.26 97.62
  L 299.24 97.64
  A 0.38 0.38 0.0 0 0 299.62 97.26
  L 299.63 92.10
  A 0.38 0.38 0.0 0 0 299.25 91.72
  L 270.50 91.72
  A 0.38 0.38 0.0 0 0 270.12 92.10
  L 270.14 97.26
  A 0.38 0.38 0.0 0 0 270.52 97.64
  L 281.50 97.63
  A 0.38 0.38 0.0 0 1 281.88 98.01
  L 281.87 119.12
  A 0.38 0.38 0.0 0 0 282.25 119.50
  L 287.51 119.50
  A 0.38 0.38 0.0 0 0 287.89 119.12
  L 287.88 98.00"
/>
<path stroke="#808080" vector-effect="non-scaling-stroke" d="
  M 336.54 101.82
  A 0.31 0.31 0.0 0 1 336.23 102.13
  L 322.34 102.12
  A 0.31 0.31 0.0 0 1 322.03 101.81
  L 322.04 92.03
  A 0.31 0.31 0.0 0 0 321.73 91.72
  L 316.34 91.72
  A 0.31 0.31 0.0 0 0 316.03 92.03
  L 316.04 119.19
  A 0.31 0.31 0.0 0 0 316.35 119.50
  L 321.72 119.50
  A 0.31 0.31 0.0 0 0 322.03 119.19
  L 322.04 108.52
  A 0.31 0.31 0.0 0 1 322.35 108.21
  L 336.23 108.21
  A 0.31 0.31 0.0 0 1 336.54 108.52
  L 336.54 119.18
  A 0.31 0.31 0.0 0 0 336.85 119.49
  L 342.22 119.51
  A 0.31 0.31 0.0 0 0 342.53 119.20
  L 342.54 92.03
  A 0.31 0.31 0.0 0 0 342.23 91.72
  L 336.85 91.72
  A 0.31 0.31 0.0 0 0 336.54 92.03
  L 336.54 101.82"
/>
<path stroke="#808080" vector-effect="non-scaling-stroke" d="
  M 368.75 102.12
  A 0.37 0.37 0.0 0 1 368.38 101.75
  L 368.35 98.00
  A 0.37 0.37 0.0 0 1 368.72 97.63
  L 387.67 97.64
  A 0.37 0.37 0.0 0 0 388.04 97.27
  L 388.04 92.09
  A 0.37 0.37 0.0 0 0 387.67 91.72
  L 362.73 91.72
  A 0.37 0.37 0.0 0 0 362.36 92.09
  L 362.41 119.12
  A 0.37 0.37 0.0 0 0 362.78 119.49
  L 388.41 119.50
  A 0.37 0.37 0.0 0 0 388.78 119.13
  L 388.79 114.09
  A 0.37 0.37 0.0 0 0 388.42 113.72
  L 368.74 113.72
  A 0.37 0.37 0.0 0 1 368.37 113.35
  L 368.37 108.58
  A 0.37 0.37 0.0 0 1 368.74 108.21
  L 384.19 108.22
  A 0.37 0.37 0.0 0 0 384.56 107.85
  L 384.53 102.49
  A 0.37 0.37 0.0 0 0 384.16 102.12
  L 368.75 102.12"
/>
<path stroke="#808080" vector-effect="non-scaling-stroke" d="
  M 279.45 232.12
  C 272.98 253.30 259.72 272.46 235.32 272.46
  Q 223.66 272.46 211.04 272.47
  A 0.25 0.24 0.0 0 1 210.79 272.23
  L 210.79 181.71
  Q 210.79 181.37 210.45 181.37
  L 190.88 181.37
  A 0.34 0.34 0.0 0 0 190.54 181.71
  L 190.54 292.30
  A 0.43 0.43 0.0 0 0 190.97 292.73
  Q 213.70 292.79 235.63 292.71
  C 274.73 292.56 294.41 259.92 302.12 226.11
  Q 307.28 203.49 307.31 181.79
  Q 307.31 181.21 306.74 181.22
  L 287.52 181.56
  A 0.45 0.45 0.0 0 0 287.07 182.01
  Q 286.68 207.33 280.31 229.61
  A 0.44 0.44 0.0 0 1 279.51 229.71
  L 250.72 181.03
  A 0.39 0.39 0.0 0 0 250.18 180.89
  L 233.35 190.86
  A 0.29 0.29 0.0 0 0 233.25 191.26
  L 262.52 240.76
  A 0.56 0.55 -30.5 0 0 263.28 240.95
  L 278.93 231.71
  Q 279.71 231.25 279.45 232.12"
/>
<path stroke="#808080" vector-effect="non-scaling-stroke" d="
  M 340.28 272.79
  Q 340.28 271.74 340.98 272.52
  Q 360.31 294.01 389.18 294.30
  Q 389.75 294.30 389.75 293.73
  L 389.75 274.70
  Q 389.75 274.04 389.09 274.03
  C 370.40 273.72 356.42 263.65 347.97 247.07
  A 0.30 0.30 0.0 0 1 348.24 246.63
  L 385.62 246.63
  A 0.34 0.34 0.0 0 0 385.96 246.29
  L 385.96 182.00
  Q 385.96 181.29 385.25 181.29
  L 320.48 181.29
  Q 320.00 181.29 320.00 181.77
  L 320.00 293.22
  Q 320.00 293.95 320.72 293.95
  L 339.66 293.97
  Q 340.29 293.97 340.29 293.34
  L 340.28 272.79"
/>
<path stroke="#808080" vector-effect="non-scaling-stroke" d="
  M 450.47 221.15
  A 0.39 0.39 0.0 0 1 450.08 221.54
  L 405.18 221.54
  A 0.39 0.39 0.0 0 0 404.79 221.93
  L 404.79 293.89
  A 0.39 0.39 0.0 0 0 405.18 294.28
  L 470.36 294.29
  A 0.39 0.39 0.0 0 0 470.75 293.90
  L 470.75 181.68
  A 0.39 0.39 0.0 0 0 470.36 181.29
  L 403.39 181.29
  A 0.39 0.39 0.0 0 0 403.00 181.68
  L 403.00 201.15
  A 0.39 0.39 0.0 0 0 403.39 201.54
  L 450.07 201.53
  A 0.39 0.39 0.0 0 1 450.46 201.92
  L 450.47 221.15"
/>
<path stroke="#808080" vector-effect="non-scaling-stroke" d="
  M 148.25 355.61
  A 0.39 0.39 0.0 0 1 147.86 356.00
  L 115.68 356.00
  A 0.39 0.39 0.0 0 1 115.29 355.61
  L 115.28 312.76
  A 0.39 0.39 0.0 0 0 114.89 312.37
  L 95.43 312.37
  A 0.39 0.39 0.0 0 0 95.04 312.76
  L 95.04 425.36
  A 0.39 0.39 0.0 0 0 95.43 425.75
  L 114.90 425.75
  A 0.39 0.39 0.0 0 0 115.29 425.36
  L 115.28 376.64
  A 0.39 0.39 0.0 0 1 115.67 376.25
  L 147.86 376.25
  A 0.39 0.39 0.0 0 1 148.25 376.64
  L 148.25 425.36
  A 0.39 0.39 0.0 0 0 148.64 425.75
  L 168.11 425.75
  A 0.39 0.39 0.0 0 0 168.50 425.36
  L 168.50 312.43
  A 0.39 0.39 0.0 0 0 168.11 312.04
  L 148.64 312.04
  A 0.39 0.39 0.0 0 0 148.25 312.43
  L 148.25 355.61"
/>
<path stroke="#808080" vector-effect="non-scaling-stroke" d="
  M 372.12 404.72
  A 0.33 0.33 0.0 0 1 371.79 404.39
  L 371.79 312.70
  A 0.33 0.33 0.0 0 0 371.46 312.37
  L 351.87 312.37
  A 0.33 0.33 0.0 0 0 351.54 312.70
  L 351.54 424.63
  A 0.33 0.33 0.0 0 0 351.87 424.96
  L 417.17 424.96
  A 0.33 0.33 0.0 0 0 417.50 424.63
  L 417.50 312.70
  A 0.33 0.33 0.0 0 0 417.17 312.37
  L 397.54 312.38
  A 0.33 0.33 0.0 0 0 397.21 312.71
  L 397.21 404.38
  A 0.33 0.33 0.0 0 1 396.88 404.71
  L 372.12 404.72"
/>
<path stroke="#808080" vector-effect="non-scaling-stroke" d="
  M 450.42 332.63
  A 0.33 0.33 0.0 0 1 450.75 332.96
  L 450.75 424.63
  A 0.33 0.33 0.0 0 0 451.08 424.96
  L 470.67 424.96
  A 0.33 0.33 0.0 0 0 471.00 424.63
  L 471.00 332.96
  A 0.33 0.33 0.0 0 1 471.33 332.63
  L 493.71 332.64
  A 0.33 0.33 0.0 0 0 494.04 332.31
  L 494.04 312.70
  A 0.33 0.33 0.0 0 0 493.71 312.37
  L 428.04 312.36
  A 0.33 0.33 0.0 0 0 427.71 312.69
  L 427.71 332.30
  A 0.33 0.33 0.0 0 0 428.04 332.63
  L 450.42 332.63"
/>
<path stroke="#808080" vector-effect="non-scaling-stroke" d="
  M 231.29 333.46
  A 0.34 0.34 0.0 0 1 231.63 333.80
  L 231.63 353.04
  A 0.34 0.34 0.0 0 1 231.29 353.38
  L 186.34 353.38
  A 0.34 0.34 0.0 0 0 186.00 353.72
  L 186.00 425.78
  A 0.34 0.34 0.0 0 0 186.34 426.12
  L 251.62 426.13
  A 0.34 0.34 0.0 0 0 251.96 425.79
  L 251.96 313.46
  A 0.34 0.34 0.0 0 0 251.62 313.12
  L 184.55 313.13
  A 0.34 0.34 0.0 0 0 184.21 313.47
  L 184.21 333.12
  A 0.34 0.34 0.0 0 0 184.55 333.46
  L 231.29 333.46"
/>
<path stroke="#808080" vector-effect="non-scaling-stroke" d="
  M 297.21 378.46
  L 334.20 378.46
  A 0.43 0.42 0.0 0 0 334.63 378.04
  L 334.63 313.51
  A 0.38 0.37 -90.0 0 0 334.26 313.13
  L 269.09 313.12
  Q 268.72 313.12 268.72 313.50
  L 268.72 425.48
  Q 268.72 425.75 268.98 425.75
  L 288.50 425.75
  A 0.50 0.50 0.0 0 0 289.00 425.25
  L 289.00 404.77
  Q 289.00 403.59 289.79 404.47
  Q 308.89 425.81 338.22 426.16
  A 0.24 0.24 0.0 0 0 338.46 425.92
  L 338.47 406.48
  Q 338.47 405.83 337.82 405.83
  C 319.16 405.64 305.38 395.59 296.77 379.19
  Q 296.38 378.46 297.21 378.46"
/>
<path stroke="#808080" vector-effect="non-scaling-stroke" d="
  M 566.25 313.39
  A 0.27 0.27 0.0 0 0 565.98 313.12
  L 500.56 313.12
  A 0.27 0.27 0.0 0 0 500.29 313.39
  L 500.29 425.85
  A 0.27 0.27 0.0 0 0 500.56 426.12
  L 565.98 426.12
  A 0.27 0.27 0.0 0 0 566.25 425.85
  L 566.25 313.39"
/>
<path stroke="#808080" vector-effect="non-scaling-stroke" d="
  M 255.1527 516.2659
  A 13.34 13.34 0.0 0 0 242.0476 502.6951
  L 239.4280 502.6494
  A 13.34 13.34 0.0 0 0 225.8572 515.7545
  L 225.8073 518.6141
  A 13.34 13.34 0.0 0 0 238.9124 532.1849
  L 241.5320 532.2306
  A 13.34 13.34 0.0 0 0 255.1028 519.1255
  L 255.1527 516.2659"
/>
<path stroke="#808080" vector-effect="non-scaling-stroke" d="
  M 209.78 521.73
  L 205.98 520.01
  Q 205.47 519.77 205.26 520.30
  C 200.77 531.26 184.04 525.78 188.00 514.01
  C 190.48 506.65 201.81 507.15 204.81 513.72
  Q 205.03 514.19 205.52 514.01
  L 209.97 512.30
  Q 210.51 512.10 210.32 511.56
  C 205.49 497.34 180.81 500.95 181.02 516.65
  Q 181.19 529.45 193.36 532.03
  C 200.11 533.46 208.81 530.47 210.21 522.54
  A 0.75 0.75 0.0 0 0 209.78 521.73"
/>
<path stroke="#808080" vector-effect="non-scaling-stroke" d="
  M 279.37 514.87
  Q 279.78 514.83 279.76 515.19
  Q 279.75 515.41 279.84 515.61
  L 287.01 530.46
  A 2.02 2.01 -45.0 0 0 290.64 530.46
  L 298.08 515.08
  Q 298.66 513.88 298.66 515.21
  L 298.62 531.05
  Q 298.62 531.48 299.05 531.47
  L 304.16 531.46
  Q 304.53 531.46 304.53 531.09
  L 304.54 504.03
  Q 304.54 503.53 304.03 503.53
  L 297.62 503.54
  Q 296.98 503.54 296.70 504.12
  L 289.15 520.19
  A 0.33 0.32 44.8 0 1 288.56 520.19
  L 280.93 504.10
  Q 280.66 503.54 280.04 503.54
  L 273.75 503.54
  Q 273.04 503.54 273.04 504.25
  L 273.04 531.01
  A 0.46 0.46 0.0 0 0 273.51 531.47
  L 278.54 531.45
  Q 279.03 531.45 279.03 530.96
  L 279.05 515.24
  A 0.37 0.37 0.0 0 1 279.37 514.87"
/>
<path stroke="#808080" vector-effect="non-scaling-stroke" d="
  M 331.11 521.95
  Q 336.75 522.01 341.90 521.98
  C 354.71 521.91 356.65 503.94 342.84 503.64
  Q 334.14 503.44 324.99 503.55
  Q 324.37 503.56 324.37 504.18
  L 324.38 531.18
  Q 324.38 531.46 324.66 531.46
  L 330.11 531.47
  A 0.28 0.28 0.0 0 0 330.39 531.19
  L 330.36 522.70
  Q 330.36 521.94 331.11 521.95"
/>
<path stroke="#808080" vector-effect="non-scaling-stroke" d="
  M 372.74 524.93
  A 0.39 0.39 0.0 0 1 373.10 524.71
  L 387.29 524.72
  A 0.39 0.39 0.0 0 1 387.65 524.94
  L 390.62 531.22
  A 0.39 0.39 0.0 0 0 390.96 531.44
  L 396.90 531.49
  A 0.39 0.39 0.0 0 0 397.25 530.92
  L 384.02 503.76
  A 0.39 0.39 0.0 0 0 383.67 503.54
  L 376.73 503.55
  A 0.39 0.39 0.0 0 0 376.38 503.77
  L 363.17 530.93
  A 0.39 0.39 0.0 0 0 363.52 531.49
  L 369.45 531.42
  A 0.39 0.39 0.0 0 0 369.79 531.20
  L 372.74 524.93"
/>
<path stroke="#808080" vector-effect="non-scaling-stroke" d="
  M 418.94 531.46
  A 0.31 0.31 0.0 0 0 419.25 531.15
  L 419.24 513.65
  A 0.31 0.31 0.0 0 1 419.79 513.45
  L 434.94 531.34
  A 0.31 0.31 0.0 0 0 435.17 531.45
  L 440.69 531.46
  A 0.31 0.31 0.0 0 0 441.00 531.15
  L 441.00 503.86
  A 0.31 0.31 0.0 0 0 440.69 503.55
  L 435.30 503.53
  A 0.31 0.31 0.0 0 0 434.99 503.84
  L 435.01 521.51
  A 0.31 0.31 0.0 0 1 434.46 521.71
  L 419.34 503.68
  A 0.31 0.31 0.0 0 0 419.11 503.57
  L 413.56 503.53
  A 0.31 0.31 0.0 0 0 413.25 503.84
  L 413.25 531.14
  A 0.31 0.31 0.0 0 0 413.56 531.45
  L 418.94 531.46"
/>
<path stroke="#808080" vector-effect="non-scaling-stroke" d="
  M 474.49 515.94
  A 0.34 0.34 0.0 0 1 473.95 515.94
  L 464.48 503.69
  A 0.34 0.34 0.0 0 0 464.21 503.56
  L 457.56 503.51
  A 0.34 0.34 0.0 0 0 457.29 504.06
  L 471.18 521.99
  A 0.34 0.34 0.0 0 1 471.25 522.20
  L 471.26 531.12
  A 0.34 0.34 0.0 0 0 471.60 531.46
  L 476.87 531.46
  A 0.34 0.34 0.0 0 0 477.21 531.12
  L 477.19 522.17
  A 0.34 0.34 0.0 0 1 477.26 521.96
  L 491.12 504.06
  A 0.34 0.34 0.0 0 0 490.85 503.51
  L 484.21 503.54
  A 0.34 0.34 0.0 0 0 483.94 503.67
  L 474.49 515.94"
/>
<path stroke="#808080" vector-effect="non-scaling-stroke" d="
  M 365.72 201.95
  A 0.42 0.42 0.0 0 0 365.30 201.53
  L 340.70 201.53
  A 0.42 0.42 0.0 0 0 340.28 201.95
  L 340.28 225.95
  A 0.42 0.42 0.0 0 0 340.70 226.37
  L 365.30 226.37
  A 0.42 0.42 0.0 0 0 365.72 225.95
  L 365.72 201.95"
/>
<path stroke="#808080" vector-effect="non-scaling-stroke" d="
  M 450.47 242.23
  A 0.44 0.44 0.0 0 0 450.03 241.79
  L 425.47 241.79
  A 0.44 0.44 0.0 0 0 425.03 242.23
  L 425.03 273.61
  A 0.44 0.44 0.0 0 0 425.47 274.05
  L 450.03 274.05
  A 0.44 0.44 0.0 0 0 450.47 273.61
  L 450.47 242.23"
/>
<path stroke="#808080" vector-effect="non-scaling-stroke" d="
  M 231.63 374.02
  A 0.40 0.40 0.0 0 0 231.23 373.62
  L 206.65 373.62
  A 0.40 0.40 0.0 0 0 206.25 374.02
  L 206.25 405.48
  A 0.40 0.40 0.0 0 0 206.65 405.88
  L 231.23 405.88
  A 0.40 0.40 0.0 0 0 231.63 405.48
  L 231.63 374.02"
/>
<path stroke="#808080" vector-effect="non-scaling-stroke" d="
  M 314.38 333.81
  A 0.35 0.35 0.0 0 0 314.03 333.46
  L 289.31 333.46
  A 0.35 0.35 0.0 0 0 288.96 333.81
  L 288.96 357.87
  A 0.35 0.35 0.0 0 0 289.31 358.22
  L 314.03 358.22
  A 0.35 0.35 0.0 0 0 314.38 357.87
  L 314.38 333.81"
/>
<path stroke="#808080" vector-effect="non-scaling-stroke" d="
  M 546.00 333.84
  A 0.38 0.38 0.0 0 0 545.62 333.46
  L 520.92 333.46
  A 0.38 0.38 0.0 0 0 520.54 333.84
  L 520.54 405.50
  A 0.38 0.38 0.0 0 0 520.92 405.88
  L 545.62 405.88
  A 0.38 0.38 0.0 0 0 546.00 405.50
  L 546.00 333.84"
/>
<path stroke="#808080" vector-effect="non-scaling-stroke" d="
  M 248.8296 515.6441
  A 7.68 7.68 0.0 0 0 240.8219 508.3064
  L 239.3433 508.3709
  A 7.68 7.68 0.0 0 0 232.0056 516.3786
  L 232.1304 519.2359
  A 7.68 7.68 0.0 0 0 240.1381 526.5736
  L 241.6167 526.5091
  A 7.68 7.68 0.0 0 0 248.9544 518.5014
  L 248.8296 515.6441"
/>
<path stroke="#808080" vector-effect="non-scaling-stroke" d="
  M 330.34 510.08
  L 330.36 515.24
  A 0.58 0.58 0.0 0 0 330.95 515.82
  L 341.92 515.76
  A 3.47 3.06 -0.3 0 0 345.37 512.68
  L 345.37 512.48
  A 3.47 3.06 -0.3 0 0 341.88 509.44
  L 330.91 509.50
  A 0.58 0.58 0.0 0 0 330.34 510.08"
/>
<path stroke="#808080" vector-effect="non-scaling-stroke" d="
  M 375.91 518.28
  Q 375.61 518.90 376.29 518.90
  L 384.29 518.87
  A 0.31 0.31 0.0 0 0 384.57 518.43
  L 380.86 510.63
  A 0.73 0.72 -44.9 0 0 379.55 510.63
  L 375.91 518.28"
/>
</g>
<path fill="#000000" d="
  M 0.00 0.00
  L 662.00 0.00
  L 662.00 625.00
  L 0.00 625.00
  L 0.00 0.00
  Z
  M 661.72 0.48
  A 0.26 0.26 0.0 0 0 661.46 0.22
  L 0.46 0.22
  A 0.26 0.26 0.0 0 0 0.20 0.48
  L 0.20 0.54
  A 0.26 0.26 0.0 0 0 0.46 0.80
  L 661.46 0.80
  A 0.26 0.26 0.0 0 0 661.72 0.54
  L 661.72 0.48
  Z
  M 287.88 98.00
  A 0.38 0.38 0.0 0 1 288.26 97.62
  L 299.24 97.64
  A 0.38 0.38 0.0 0 0 299.62 97.26
  L 299.63 92.10
  A 0.38 0.38 0.0 0 0 299.25 91.72
  L 270.50 91.72
  A 0.38 0.38 0.0 0 0 270.12 92.10
  L 270.14 97.26
  A 0.38 0.38 0.0 0 0 270.52 97.64
  L 281.50 97.63
  A 0.38 0.38 0.0 0 1 281.88 98.01
  L 281.87 119.12
  A 0.38 0.38 0.0 0 0 282.25 119.50
  L 287.51 119.50
  A 0.38 0.38 0.0 0 0 287.89 119.12
  L 287.88 98.00
  Z
  M 336.54 101.82
  A 0.31 0.31 0.0 0 1 336.23 102.13
  L 322.34 102.12
  A 0.31 0.31 0.0 0 1 322.03 101.81
  L 322.04 92.03
  A 0.31 0.31 0.0 0 0 321.73 91.72
  L 316.34 91.72
  A 0.31 0.31 0.0 0 0 316.03 92.03
  L 316.04 119.19
  A 0.31 0.31 0.0 0 0 316.35 119.50
  L 321.72 119.50
  A 0.31 0.31 0.0 0 0 322.03 119.19
  L 322.04 108.52
  A 0.31 0.31 0.0 0 1 322.35 108.21
  L 336.23 108.21
  A 0.31 0.31 0.0 0 1 336.54 108.52
  L 336.54 119.18
  A 0.31 0.31 0.0 0 0 336.85 119.49
  L 342.22 119.51
  A 0.31 0.31 0.0 0 0 342.53 119.20
  L 342.54 92.03
  A 0.31 0.31 0.0 0 0 342.23 91.72
  L 336.85 91.72
  A 0.31 0.31 0.0 0 0 336.54 92.03
  L 336.54 101.82
  Z
  M 368.75 102.12
  A 0.37 0.37 0.0 0 1 368.38 101.75
  L 368.35 98.00
  A 0.37 0.37 0.0 0 1 368.72 97.63
  L 387.67 97.64
  A 0.37 0.37 0.0 0 0 388.04 97.27
  L 388.04 92.09
  A 0.37 0.37 0.0 0 0 387.67 91.72
  L 362.73 91.72
  A 0.37 0.37 0.0 0 0 362.36 92.09
  L 362.41 119.12
  A 0.37 0.37 0.0 0 0 362.78 119.49
  L 388.41 119.50
  A 0.37 0.37 0.0 0 0 388.78 119.13
  L 388.79 114.09
  A 0.37 0.37 0.0 0 0 388.42 113.72
  L 368.74 113.72
  A 0.37 0.37 0.0 0 1 368.37 113.35
  L 368.37 108.58
  A 0.37 0.37 0.0 0 1 368.74 108.21
  L 384.19 108.22
  A 0.37 0.37 0.0 0 0 384.56 107.85
  L 384.53 102.49
  A 0.37 0.37 0.0 0 0 384.16 102.12
  L 368.75 102.12
  Z
  M 279.45 232.12
  C 272.98 253.30 259.72 272.46 235.32 272.46
  Q 223.66 272.46 211.04 272.47
  A 0.25 0.24 0.0 0 1 210.79 272.23
  L 210.79 181.71
  Q 210.79 181.37 210.45 181.37
  L 190.88 181.37
  A 0.34 0.34 0.0 0 0 190.54 181.71
  L 190.54 292.30
  A 0.43 0.43 0.0 0 0 190.97 292.73
  Q 213.70 292.79 235.63 292.71
  C 274.73 292.56 294.41 259.92 302.12 226.11
  Q 307.28 203.49 307.31 181.79
  Q 307.31 181.21 306.74 181.22
  L 287.52 181.56
  A 0.45 0.45 0.0 0 0 287.07 182.01
  Q 286.68 207.33 280.31 229.61
  A 0.44 0.44 0.0 0 1 279.51 229.71
  L 250.72 181.03
  A 0.39 0.39 0.0 0 0 250.18 180.89
  L 233.35 190.86
  A 0.29 0.29 0.0 0 0 233.25 191.26
  L 262.52 240.76
  A 0.56 0.55 -30.5 0 0 263.28 240.95
  L 278.93 231.71
  Q 279.71 231.25 279.45 232.12
  Z
  M 340.28 272.79
  Q 340.28 271.74 340.98 272.52
  Q 360.31 294.01 389.18 294.30
  Q 389.75 294.30 389.75 293.73
  L 389.75 274.70
  Q 389.75 274.04 389.09 274.03
  C 370.40 273.72 356.42 263.65 347.97 247.07
  A 0.30 0.30 0.0 0 1 348.24 246.63
  L 385.62 246.63
  A 0.34 0.34 0.0 0 0 385.96 246.29
  L 385.96 182.00
  Q 385.96 181.29 385.25 181.29
  L 320.48 181.29
  Q 320.00 181.29 320.00 181.77
  L 320.00 293.22
  Q 320.00 293.95 320.72 293.95
  L 339.66 293.97
  Q 340.29 293.97 340.29 293.34
  L 340.28 272.79
  Z
  M 450.47 221.15
  A 0.39 0.39 0.0 0 1 450.08 221.54
  L 405.18 221.54
  A 0.39 0.39 0.0 0 0 404.79 221.93
  L 404.79 293.89
  A 0.39 0.39 0.0 0 0 405.18 294.28
  L 470.36 294.29
  A 0.39 0.39 0.0 0 0 470.75 293.90
  L 470.75 181.68
  A 0.39 0.39 0.0 0 0 470.36 181.29
  L 403.39 181.29
  A 0.39 0.39 0.0 0 0 403.00 181.68
  L 403.00 201.15
  A 0.39 0.39 0.0 0 0 403.39 201.54
  L 450.07 201.53
  A 0.39 0.39 0.0 0 1 450.46 201.92
  L 450.47 221.15
  Z
  M 148.25 355.61
  A 0.39 0.39 0.0 0 1 147.86 356.00
  L 115.68 356.00
  A 0.39 0.39 0.0 0 1 115.29 355.61
  L 115.28 312.76
  A 0.39 0.39 0.0 0 0 114.89 312.37
  L 95.43 312.37
  A 0.39 0.39 0.0 0 0 95.04 312.76
  L 95.04 425.36
  A 0.39 0.39 0.0 0 0 95.43 425.75
  L 114.90 425.75
  A 0.39 0.39 0.0 0 0 115.29 425.36
  L 115.28 376.64
  A 0.39 0.39 0.0 0 1 115.67 376.25
  L 147.86 376.25
  A 0.39 0.39 0.0 0 1 148.25 376.64
  L 148.25 425.36
  A 0.39 0.39 0.0 0 0 148.64 425.75
  L 168.11 425.75
  A 0.39 0.39 0.0 0 0 168.50 425.36
  L 168.50 312.43
  A 0.39 0.39 0.0 0 0 168.11 312.04
  L 148.64 312.04
  A 0.39 0.39 0.0 0 0 148.25 312.43
  L 148.25 355.61
  Z
  M 372.12 404.72
  A 0.33 0.33 0.0 0 1 371.79 404.39
  L 371.79 312.70
  A 0.33 0.33 0.0 0 0 371.46 312.37
  L 351.87 312.37
  A 0.33 0.33 0.0 0 0 351.54 312.70
  L 351.54 424.63
  A 0.33 0.33 0.0 0 0 351.87 424.96
  L 417.17 424.96
  A 0.33 0.33 0.0 0 0 417.50 424.63
  L 417.50 312.70
  A 0.33 0.33 0.0 0 0 417.17 312.37
  L 397.54 312.38
  A 0.33 0.33 0.0 0 0 397.21 312.71
  L 397.21 404.38
  A 0.33 0.33 0.0 0 1 396.88 404.71
  L 372.12 404.72
  Z
  M 450.42 332.63
  A 0.33 0.33 0.0 0 1 450.75 332.96
  L 450.75 424.63
  A 0.33 0.33 0.0 0 0 451.08 424.96
  L 470.67 424.96
  A 0.33 0.33 0.0 0 0 471.00 424.63
  L 471.00 332.96
  A 0.33 0.33 0.0 0 1 471.33 332.63
  L 493.71 332.64
  A 0.33 0.33 0.0 0 0 494.04 332.31
  L 494.04 312.70
  A 0.33 0.33 0.0 0 0 493.71 312.37
  L 428.04 312.36
  A 0.33 0.33 0.0 0 0 427.71 312.69
  L 427.71 332.30
  A 0.33 0.33 0.0 0 0 428.04 332.63
  L 450.42 332.63
  Z
  M 231.29 333.46
  A 0.34 0.34 0.0 0 1 231.63 333.80
  L 231.63 353.04
  A 0.34 0.34 0.0 0 1 231.29 353.38
  L 186.34 353.38
  A 0.34 0.34 0.0 0 0 186.00 353.72
  L 186.00 425.78
  A 0.34 0.34 0.0 0 0 186.34 426.12
  L 251.62 426.13
  A 0.34 0.34 0.0 0 0 251.96 425.79
  L 251.96 313.46
  A 0.34 0.34 0.0 0 0 251.62 313.12
  L 184.55 313.13
  A 0.34 0.34 0.0 0 0 184.21 313.47
  L 184.21 333.12
  A 0.34 0.34 0.0 0 0 184.55 333.46
  L 231.29 333.46
  Z
  M 297.21 378.46
  L 334.20 378.46
  A 0.43 0.42 0.0 0 0 334.63 378.04
  L 334.63 313.51
  A 0.38 0.37 -90.0 0 0 334.26 313.13
  L 269.09 313.12
  Q 268.72 313.12 268.72 313.50
  L 268.72 425.48
  Q 268.72 425.75 268.98 425.75
  L 288.50 425.75
  A 0.50 0.50 0.0 0 0 289.00 425.25
  L 289.00 404.77
  Q 289.00 403.59 289.79 404.47
  Q 308.89 425.81 338.22 426.16
  A 0.24 0.24 0.0 0 0 338.46 425.92
  L 338.47 406.48
  Q 338.47 405.83 337.82 405.83
  C 319.16 405.64 305.38 395.59 296.77 379.19
  Q 296.38 378.46 297.21 378.46
  Z
  M 566.25 313.39
  A 0.27 0.27 0.0 0 0 565.98 313.12
  L 500.56 313.12
  A 0.27 0.27 0.0 0 0 500.29 313.39
  L 500.29 425.85
  A 0.27 0.27 0.0 0 0 500.56 426.12
  L 565.98 426.12
  A 0.27 0.27 0.0 0 0 566.25 425.85
  L 566.25 313.39
  Z
  M 255.1527 516.2659
  A 13.34 13.34 0.0 0 0 242.0476 502.6951
  L 239.4280 502.6494
  A 13.34 13.34 0.0 0 0 225.8572 515.7545
  L 225.8073 518.6141
  A 13.34 13.34 0.0 0 0 238.9124 532.1849
  L 241.5320 532.2306
  A 13.34 13.34 0.0 0 0 255.1028 519.1255
  L 255.1527 516.2659
  Z
  M 209.78 521.73
  L 205.98 520.01
  Q 205.47 519.77 205.26 520.30
  C 200.77 531.26 184.04 525.78 188.00 514.01
  C 190.48 506.65 201.81 507.15 204.81 513.72
  Q 205.03 514.19 205.52 514.01
  L 209.97 512.30
  Q 210.51 512.10 210.32 511.56
  C 205.49 497.34 180.81 500.95 181.02 516.65
  Q 181.19 529.45 193.36 532.03
  C 200.11 533.46 208.81 530.47 210.21 522.54
  A 0.75 0.75 0.0 0 0 209.78 521.73
  Z
  M 279.37 514.87
  Q 279.78 514.83 279.76 515.19
  Q 279.75 515.41 279.84 515.61
  L 287.01 530.46
  A 2.02 2.01 -45.0 0 0 290.64 530.46
  L 298.08 515.08
  Q 298.66 513.88 298.66 515.21
  L 298.62 531.05
  Q 298.62 531.48 299.05 531.47
  L 304.16 531.46
  Q 304.53 531.46 304.53 531.09
  L 304.54 504.03
  Q 304.54 503.53 304.03 503.53
  L 297.62 503.54
  Q 296.98 503.54 296.70 504.12
  L 289.15 520.19
  A 0.33 0.32 44.8 0 1 288.56 520.19
  L 280.93 504.10
  Q 280.66 503.54 280.04 503.54
  L 273.75 503.54
  Q 273.04 503.54 273.04 504.25
  L 273.04 531.01
  A 0.46 0.46 0.0 0 0 273.51 531.47
  L 278.54 531.45
  Q 279.03 531.45 279.03 530.96
  L 279.05 515.24
  A 0.37 0.37 0.0 0 1 279.37 514.87
  Z
  M 331.11 521.95
  Q 336.75 522.01 341.90 521.98
  C 354.71 521.91 356.65 503.94 342.84 503.64
  Q 334.14 503.44 324.99 503.55
  Q 324.37 503.56 324.37 504.18
  L 324.38 531.18
  Q 324.38 531.46 324.66 531.46
  L 330.11 531.47
  A 0.28 0.28 0.0 0 0 330.39 531.19
  L 330.36 522.70
  Q 330.36 521.94 331.11 521.95
  Z
  M 372.74 524.93
  A 0.39 0.39 0.0 0 1 373.10 524.71
  L 387.29 524.72
  A 0.39 0.39 0.0 0 1 387.65 524.94
  L 390.62 531.22
  A 0.39 0.39 0.0 0 0 390.96 531.44
  L 396.90 531.49
  A 0.39 0.39 0.0 0 0 397.25 530.92
  L 384.02 503.76
  A 0.39 0.39 0.0 0 0 383.67 503.54
  L 376.73 503.55
  A 0.39 0.39 0.0 0 0 376.38 503.77
  L 363.17 530.93
  A 0.39 0.39 0.0 0 0 363.52 531.49
  L 369.45 531.42
  A 0.39 0.39 0.0 0 0 369.79 531.20
  L 372.74 524.93
  Z
  M 418.94 531.46
  A 0.31 0.31 0.0 0 0 419.25 531.15
  L 419.24 513.65
  A 0.31 0.31 0.0 0 1 419.79 513.45
  L 434.94 531.34
  A 0.31 0.31 0.0 0 0 435.17 531.45
  L 440.69 531.46
  A 0.31 0.31 0.0 0 0 441.00 531.15
  L 441.00 503.86
  A 0.31 0.31 0.0 0 0 440.69 503.55
  L 435.30 503.53
  A 0.31 0.31 0.0 0 0 434.99 503.84
  L 435.01 521.51
  A 0.31 0.31 0.0 0 1 434.46 521.71
  L 419.34 503.68
  A 0.31 0.31 0.0 0 0 419.11 503.57
  L 413.56 503.53
  A 0.31 0.31 0.0 0 0 413.25 503.84
  L 413.25 531.14
  A 0.31 0.31 0.0 0 0 413.56 531.45
  L 418.94 531.46
  Z
  M 474.49 515.94
  A 0.34 0.34 0.0 0 1 473.95 515.94
  L 464.48 503.69
  A 0.34 0.34 0.0 0 0 464.21 503.56
  L 457.56 503.51
  A 0.34 0.34 0.0 0 0 457.29 504.06
  L 471.18 521.99
  A 0.34 0.34 0.0 0 1 471.25 522.20
  L 471.26 531.12
  A 0.34 0.34 0.0 0 0 471.60 531.46
  L 476.87 531.46
  A 0.34 0.34 0.0 0 0 477.21 531.12
  L 477.19 522.17
  A 0.34 0.34 0.0 0 1 477.26 521.96
  L 491.12 504.06
  A 0.34 0.34 0.0 0 0 490.85 503.51
  L 484.21 503.54
  A 0.34 0.34 0.0 0 0 483.94 503.67
  L 474.49 515.94
  Z"
/>
<rect fill="#ffffff" x="0.20" y="0.22" width="661.52" height="0.58" rx="0.26"/>
<path fill="#ffffff" d="
  M 287.88 98.00
  L 287.89 119.12
  A 0.38 0.38 0.0 0 1 287.51 119.50
  L 282.25 119.50
  A 0.38 0.38 0.0 0 1 281.87 119.12
  L 281.88 98.01
  A 0.38 0.38 0.0 0 0 281.50 97.63
  L 270.52 97.64
  A 0.38 0.38 0.0 0 1 270.14 97.26
  L 270.12 92.10
  A 0.38 0.38 0.0 0 1 270.50 91.72
  L 299.25 91.72
  A 0.38 0.38 0.0 0 1 299.63 92.10
  L 299.62 97.26
  A 0.38 0.38 0.0 0 1 299.24 97.64
  L 288.26 97.62
  A 0.38 0.38 0.0 0 0 287.88 98.00
  Z"
/>
<path fill="#ffffff" d="
  M 336.54 101.82
  L 336.54 92.03
  A 0.31 0.31 0.0 0 1 336.85 91.72
  L 342.23 91.72
  A 0.31 0.31 0.0 0 1 342.54 92.03
  L 342.53 119.20
  A 0.31 0.31 0.0 0 1 342.22 119.51
  L 336.85 119.49
  A 0.31 0.31 0.0 0 1 336.54 119.18
  L 336.54 108.52
  A 0.31 0.31 0.0 0 0 336.23 108.21
  L 322.35 108.21
  A 0.31 0.31 0.0 0 0 322.04 108.52
  L 322.03 119.19
  A 0.31 0.31 0.0 0 1 321.72 119.50
  L 316.35 119.50
  A 0.31 0.31 0.0 0 1 316.04 119.19
  L 316.03 92.03
  A 0.31 0.31 0.0 0 1 316.34 91.72
  L 321.73 91.72
  A 0.31 0.31 0.0 0 1 322.04 92.03
  L 322.03 101.81
  A 0.31 0.31 0.0 0 0 322.34 102.12
  L 336.23 102.13
  A 0.31 0.31 0.0 0 0 336.54 101.82
  Z"
/>
<path fill="#ffffff" d="
  M 368.75 102.12
  L 384.16 102.12
  A 0.37 0.37 0.0 0 1 384.53 102.49
  L 384.56 107.85
  A 0.37 0.37 0.0 0 1 384.19 108.22
  L 368.74 108.21
  A 0.37 0.37 0.0 0 0 368.37 108.58
  L 368.37 113.35
  A 0.37 0.37 0.0 0 0 368.74 113.72
  L 388.42 113.72
  A 0.37 0.37 0.0 0 1 388.79 114.09
  L 388.78 119.13
  A 0.37 0.37 0.0 0 1 388.41 119.50
  L 362.78 119.49
  A 0.37 0.37 0.0 0 1 362.41 119.12
  L 362.36 92.09
  A 0.37 0.37 0.0 0 1 362.73 91.72
  L 387.67 91.72
  A 0.37 0.37 0.0 0 1 388.04 92.09
  L 388.04 97.27
  A 0.37 0.37 0.0 0 1 387.67 97.64
  L 368.72 97.63
  A 0.37 0.37 0.0 0 0 368.35 98.00
  L 368.38 101.75
  A 0.37 0.37 0.0 0 0 368.75 102.12
  Z"
/>
<path fill="#ffffff" d="
  M 278.93 231.71
  L 263.28 240.95
  A 0.56 0.55 -30.5 0 1 262.52 240.76
  L 233.25 191.26
  A 0.29 0.29 0.0 0 1 233.35 190.86
  L 250.18 180.89
  A 0.39 0.39 0.0 0 1 250.72 181.03
  L 279.51 229.71
  A 0.44 0.44 0.0 0 0 280.31 229.61
  Q 286.68 207.33 287.07 182.01
  A 0.45 0.45 0.0 0 1 287.52 181.56
  L 306.74 181.22
  Q 307.31 181.21 307.31 181.79
  Q 307.28 203.49 302.12 226.11
  C 294.41 259.92 274.73 292.56 235.63 292.71
  Q 213.70 292.79 190.97 292.73
  A 0.43 0.43 0.0 0 1 190.54 292.30
  L 190.54 181.71
  A 0.34 0.34 0.0 0 1 190.88 181.37
  L 210.45 181.37
  Q 210.79 181.37 210.79 181.71
  L 210.79 272.23
  A 0.25 0.24 0.0 0 0 211.04 272.47
  Q 223.66 272.46 235.32 272.46
  C 259.72 272.46 272.98 253.30 279.45 232.12
  Q 279.71 231.25 278.93 231.71
  Z"
/>
<path fill="#ffffff" d="
  M 340.28 272.79
  L 340.29 293.34
  Q 340.29 293.97 339.66 293.97
  L 320.72 293.95
  Q 320.00 293.95 320.00 293.22
  L 320.00 181.77
  Q 320.00 181.29 320.48 181.29
  L 385.25 181.29
  Q 385.96 181.29 385.96 182.00
  L 385.96 246.29
  A 0.34 0.34 0.0 0 1 385.62 246.63
  L 348.24 246.63
  A 0.30 0.30 0.0 0 0 347.97 247.07
  C 356.42 263.65 370.40 273.72 389.09 274.03
  Q 389.75 274.04 389.75 274.70
  L 389.75 293.73
  Q 389.75 294.30 389.18 294.30
  Q 360.31 294.01 340.98 272.52
  Q 340.28 271.74 340.28 272.79
  Z
  M 365.72 201.95
  A 0.42 0.42 0.0 0 0 365.30 201.53
  L 340.70 201.53
  A 0.42 0.42 0.0 0 0 340.28 201.95
  L 340.28 225.95
  A 0.42 0.42 0.0 0 0 340.70 226.37
  L 365.30 226.37
  A 0.42 0.42 0.0 0 0 365.72 225.95
  L 365.72 201.95
  Z"
/>
<path fill="#ffffff" d="
  M 450.47 221.15
  L 450.46 201.92
  A 0.39 0.39 0.0 0 0 450.07 201.53
  L 403.39 201.54
  A 0.39 0.39 0.0 0 1 403.00 201.15
  L 403.00 181.68
  A 0.39 0.39 0.0 0 1 403.39 181.29
  L 470.36 181.29
  A 0.39 0.39 0.0 0 1 470.75 181.68
  L 470.75 293.90
  A 0.39 0.39 0.0 0 1 470.36 294.29
  L 405.18 294.28
  A 0.39 0.39 0.0 0 1 404.79 293.89
  L 404.79 221.93
  A 0.39 0.39 0.0 0 1 405.18 221.54
  L 450.08 221.54
  A 0.39 0.39 0.0 0 0 450.47 221.15
  Z
  M 450.47 242.23
  A 0.44 0.44 0.0 0 0 450.03 241.79
  L 425.47 241.79
  A 0.44 0.44 0.0 0 0 425.03 242.23
  L 425.03 273.61
  A 0.44 0.44 0.0 0 0 425.47 274.05
  L 450.03 274.05
  A 0.44 0.44 0.0 0 0 450.47 273.61
  L 450.47 242.23
  Z"
/>
<rect fill="#000000" x="340.28" y="201.53" width="25.44" height="24.84" rx="0.42"/>
<rect fill="#000000" x="425.03" y="241.79" width="25.44" height="32.26" rx="0.44"/>
<path fill="#ffffff" d="
  M 148.25 355.61
  L 148.25 312.43
  A 0.39 0.39 0.0 0 1 148.64 312.04
  L 168.11 312.04
  A 0.39 0.39 0.0 0 1 168.50 312.43
  L 168.50 425.36
  A 0.39 0.39 0.0 0 1 168.11 425.75
  L 148.64 425.75
  A 0.39 0.39 0.0 0 1 148.25 425.36
  L 148.25 376.64
  A 0.39 0.39 0.0 0 0 147.86 376.25
  L 115.67 376.25
  A 0.39 0.39 0.0 0 0 115.28 376.64
  L 115.29 425.36
  A 0.39 0.39 0.0 0 1 114.90 425.75
  L 95.43 425.75
  A 0.39 0.39 0.0 0 1 95.04 425.36
  L 95.04 312.76
  A 0.39 0.39 0.0 0 1 95.43 312.37
  L 114.89 312.37
  A 0.39 0.39 0.0 0 1 115.28 312.76
  L 115.29 355.61
  A 0.39 0.39 0.0 0 0 115.68 356.00
  L 147.86 356.00
  A 0.39 0.39 0.0 0 0 148.25 355.61
  Z"
/>
<path fill="#ffffff" d="
  M 372.12 404.72
  L 396.88 404.71
  A 0.33 0.33 0.0 0 0 397.21 404.38
  L 397.21 312.71
  A 0.33 0.33 0.0 0 1 397.54 312.38
  L 417.17 312.37
  A 0.33 0.33 0.0 0 1 417.50 312.70
  L 417.50 424.63
  A 0.33 0.33 0.0 0 1 417.17 424.96
  L 351.87 424.96
  A 0.33 0.33 0.0 0 1 351.54 424.63
  L 351.54 312.70
  A 0.33 0.33 0.0 0 1 351.87 312.37
  L 371.46 312.37
  A 0.33 0.33 0.0 0 1 371.79 312.70
  L 371.79 404.39
  A 0.33 0.33 0.0 0 0 372.12 404.72
  Z"
/>
<path fill="#ffffff" d="
  M 450.42 332.63
  L 428.04 332.63
  A 0.33 0.33 0.0 0 1 427.71 332.30
  L 427.71 312.69
  A 0.33 0.33 0.0 0 1 428.04 312.36
  L 493.71 312.37
  A 0.33 0.33 0.0 0 1 494.04 312.70
  L 494.04 332.31
  A 0.33 0.33 0.0 0 1 493.71 332.64
  L 471.33 332.63
  A 0.33 0.33 0.0 0 0 471.00 332.96
  L 471.00 424.63
  A 0.33 0.33 0.0 0 1 470.67 424.96
  L 451.08 424.96
  A 0.33 0.33 0.0 0 1 450.75 424.63
  L 450.75 332.96
  A 0.33 0.33 0.0 0 0 450.42 332.63
  Z"
/>
<path fill="#ffffff" d="
  M 231.29 333.46
  L 184.55 333.46
  A 0.34 0.34 0.0 0 1 184.21 333.12
  L 184.21 313.47
  A 0.34 0.34 0.0 0 1 184.55 313.13
  L 251.62 313.12
  A 0.34 0.34 0.0 0 1 251.96 313.46
  L 251.96 425.79
  A 0.34 0.34 0.0 0 1 251.62 426.13
  L 186.34 426.12
  A 0.34 0.34 0.0 0 1 186.00 425.78
  L 186.00 353.72
  A 0.34 0.34 0.0 0 1 186.34 353.38
  L 231.29 353.38
  A 0.34 0.34 0.0 0 0 231.63 353.04
  L 231.63 333.80
  A 0.34 0.34 0.0 0 0 231.29 333.46
  Z
  M 231.63 374.02
  A 0.40 0.40 0.0 0 0 231.23 373.62
  L 206.65 373.62
  A 0.40 0.40 0.0 0 0 206.25 374.02
  L 206.25 405.48
  A 0.40 0.40 0.0 0 0 206.65 405.88
  L 231.23 405.88
  A 0.40 0.40 0.0 0 0 231.63 405.48
  L 231.63 374.02
  Z"
/>
<path fill="#ffffff" d="
  M 296.77 379.19
  C 305.38 395.59 319.16 405.64 337.82 405.83
  Q 338.47 405.83 338.47 406.48
  L 338.46 425.92
  A 0.24 0.24 0.0 0 1 338.22 426.16
  Q 308.89 425.81 289.79 404.47
  Q 289.00 403.59 289.00 404.77
  L 289.00 425.25
  A 0.50 0.50 0.0 0 1 288.50 425.75
  L 268.98 425.75
  Q 268.72 425.75 268.72 425.48
  L 268.72 313.50
  Q 268.72 313.12 269.09 313.12
  L 334.26 313.13
  A 0.38 0.37 90.0 0 1 334.63 313.51
  L 334.63 378.04
  A 0.43 0.42 0.0 0 1 334.20 378.46
  L 297.21 378.46
  Q 296.38 378.46 296.77 379.19
  Z
  M 314.38 333.81
  A 0.35 0.35 0.0 0 0 314.03 333.46
  L 289.31 333.46
  A 0.35 0.35 0.0 0 0 288.96 333.81
  L 288.96 357.87
  A 0.35 0.35 0.0 0 0 289.31 358.22
  L 314.03 358.22
  A 0.35 0.35 0.0 0 0 314.38 357.87
  L 314.38 333.81
  Z"
/>
<path fill="#ffffff" d="
  M 566.25 425.85
  A 0.27 0.27 0.0 0 1 565.98 426.12
  L 500.56 426.12
  A 0.27 0.27 0.0 0 1 500.29 425.85
  L 500.29 313.39
  A 0.27 0.27 0.0 0 1 500.56 313.12
  L 565.98 313.12
  A 0.27 0.27 0.0 0 1 566.25 313.39
  L 566.25 425.85
  Z
  M 546.00 333.84
  A 0.38 0.38 0.0 0 0 545.62 333.46
  L 520.92 333.46
  A 0.38 0.38 0.0 0 0 520.54 333.84
  L 520.54 405.50
  A 0.38 0.38 0.0 0 0 520.92 405.88
  L 545.62 405.88
  A 0.38 0.38 0.0 0 0 546.00 405.50
  L 546.00 333.84
  Z"
/>
<rect fill="#000000" x="288.96" y="333.46" width="25.42" height="24.76" rx="0.35"/>
<rect fill="#000000" x="520.54" y="333.46" width="25.46" height="72.42" rx="0.38"/>
<rect fill="#000000" x="206.25" y="373.62" width="25.38" height="32.26" rx="0.40"/>
<path fill="#ffffff" d="
  M 255.1028 519.1255
  A 13.34 13.34 0.0 0 1 241.5320 532.2306
  L 238.9124 532.1849
  A 13.34 13.34 0.0 0 1 225.8073 518.6141
  L 225.8572 515.7545
  A 13.34 13.34 0.0 0 1 239.4280 502.6494
  L 242.0476 502.6951
  A 13.34 13.34 0.0 0 1 255.1527 516.2659
  L 255.1028 519.1255
  Z
  M 248.8296 515.6441
  A 7.68 7.68 0.0 0 0 240.8219 508.3064
  L 239.3433 508.3709
  A 7.68 7.68 0.0 0 0 232.0056 516.3786
  L 232.1304 519.2359
  A 7.68 7.68 0.0 0 0 240.1381 526.5736
  L 241.6167 526.5091
  A 7.68 7.68 0.0 0 0 248.9544 518.5014
  L 248.8296 515.6441
  Z"
/>
<path fill="#ffffff" d="
  M 209.78 521.73
  A 0.75 0.75 0.0 0 1 210.21 522.54
  C 208.81 530.47 200.11 533.46 193.36 532.03
  Q 181.19 529.45 181.02 516.65
  C 180.81 500.95 205.49 497.34 210.32 511.56
  Q 210.51 512.10 209.97 512.30
  L 205.52 514.01
  Q 205.03 514.19 204.81 513.72
  C 201.81 507.15 190.48 506.65 188.00 514.01
  C 184.04 525.78 200.77 531.26 205.26 520.30
  Q 205.47 519.77 205.98 520.01
  L 209.78 521.73
  Z"
/>
<path fill="#ffffff" d="
  M 279.37 514.87
  A 0.37 0.37 0.0 0 0 279.05 515.24
  L 279.03 530.96
  Q 279.03 531.45 278.54 531.45
  L 273.51 531.47
  A 0.46 0.46 0.0 0 1 273.04 531.01
  L 273.04 504.25
  Q 273.04 503.54 273.75 503.54
  L 280.04 503.54
  Q 280.66 503.54 280.93 504.10
  L 288.56 520.19
  A 0.33 0.32 44.8 0 0 289.15 520.19
  L 296.70 504.12
  Q 296.98 503.54 297.62 503.54
  L 304.03 503.53
  Q 304.54 503.53 304.54 504.03
  L 304.53 531.09
  Q 304.53 531.46 304.16 531.46
  L 299.05 531.47
  Q 298.62 531.48 298.62 531.05
  L 298.66 515.21
  Q 298.66 513.88 298.08 515.08
  L 290.64 530.46
  A 2.02 2.01 -45.0 0 1 287.01 530.46
  L 279.84 515.61
  Q 279.75 515.41 279.76 515.19
  Q 279.78 514.83 279.37 514.87
  Z"
/>
<path fill="#ffffff" d="
  M 330.36 522.70
  L 330.39 531.19
  A 0.28 0.28 0.0 0 1 330.11 531.47
  L 324.66 531.46
  Q 324.38 531.46 324.38 531.18
  L 324.37 504.18
  Q 324.37 503.56 324.99 503.55
  Q 334.14 503.44 342.84 503.64
  C 356.65 503.94 354.71 521.91 341.90 521.98
  Q 336.75 522.01 331.11 521.95
  Q 330.36 521.94 330.36 522.70
  Z
  M 330.34 510.08
  L 330.36 515.24
  A 0.58 0.58 0.0 0 0 330.95 515.82
  L 341.92 515.76
  A 3.47 3.06 -0.3 0 0 345.37 512.68
  L 345.37 512.48
  A 3.47 3.06 -0.3 0 0 341.88 509.44
  L 330.91 509.50
  A 0.58 0.58 0.0 0 0 330.34 510.08
  Z"
/>
<path fill="#ffffff" d="
  M 372.74 524.93
  L 369.79 531.20
  A 0.39 0.39 0.0 0 1 369.45 531.42
  L 363.52 531.49
  A 0.39 0.39 0.0 0 1 363.17 530.93
  L 376.38 503.77
  A 0.39 0.39 0.0 0 1 376.73 503.55
  L 383.67 503.54
  A 0.39 0.39 0.0 0 1 384.02 503.76
  L 397.25 530.92
  A 0.39 0.39 0.0 0 1 396.90 531.49
  L 390.96 531.44
  A 0.39 0.39 0.0 0 1 390.62 531.22
  L 387.65 524.94
  A 0.39 0.39 0.0 0 0 387.29 524.72
  L 373.10 524.71
  A 0.39 0.39 0.0 0 0 372.74 524.93
  Z
  M 375.91 518.28
  Q 375.61 518.90 376.29 518.90
  L 384.29 518.87
  A 0.31 0.31 0.0 0 0 384.57 518.43
  L 380.86 510.63
  A 0.73 0.72 -44.9 0 0 379.55 510.63
  L 375.91 518.28
  Z"
/>
<path fill="#ffffff" d="
  M 418.94 531.46
  L 413.56 531.45
  A 0.31 0.31 0.0 0 1 413.25 531.14
  L 413.25 503.84
  A 0.31 0.31 0.0 0 1 413.56 503.53
  L 419.11 503.57
  A 0.31 0.31 0.0 0 1 419.34 503.68
  L 434.46 521.71
  A 0.31 0.31 0.0 0 0 435.01 521.51
  L 434.99 503.84
  A 0.31 0.31 0.0 0 1 435.30 503.53
  L 440.69 503.55
  A 0.31 0.31 0.0 0 1 441.00 503.86
  L 441.00 531.15
  A 0.31 0.31 0.0 0 1 440.69 531.46
  L 435.17 531.45
  A 0.31 0.31 0.0 0 1 434.94 531.34
  L 419.79 513.45
  A 0.31 0.31 0.0 0 0 419.24 513.65
  L 419.25 531.15
  A 0.31 0.31 0.0 0 1 418.94 531.46
  Z"
/>
<path fill="#ffffff" d="
  M 474.49 515.94
  L 483.94 503.67
  A 0.34 0.34 0.0 0 1 484.21 503.54
  L 490.85 503.51
  A 0.34 0.34 0.0 0 1 491.12 504.06
  L 477.26 521.96
  A 0.34 0.34 0.0 0 0 477.19 522.17
  L 477.21 531.12
  A 0.34 0.34 0.0 0 1 476.87 531.46
  L 471.60 531.46
  A 0.34 0.34 0.0 0 1 471.26 531.12
  L 471.25 522.20
  A 0.34 0.34 0.0 0 0 471.18 521.99
  L 457.29 504.06
  A 0.34 0.34 0.0 0 1 457.56 503.51
  L 464.21 503.56
  A 0.34 0.34 0.0 0 1 464.48 503.69
  L 473.95 515.94
  A 0.34 0.34 0.0 0 0 474.49 515.94
  Z"
/>
<rect fill="#000000" x="-8.42" y="-9.11" transform="translate(240.48,517.44) rotate(-2.5)" width="16.84" height="18.22" rx="7.68"/>
<path fill="#000000" d="
  M 330.34 510.08
  A 0.58 0.58 0.0 0 1 330.91 509.50
  L 341.88 509.44
  A 3.47 3.06 -0.3 0 1 345.37 512.48
  L 345.37 512.68
  A 3.47 3.06 -0.3 0 1 341.92 515.76
  L 330.95 515.82
  A 0.58 0.58 0.0 0 1 330.36 515.24
  L 330.34 510.08
  Z"
/>
<path fill="#000000" d="
  M 375.91 518.28
  L 379.55 510.63
  A 0.73 0.72 -44.9 0 1 380.86 510.63
  L 384.57 518.43
  A 0.31 0.31 0.0 0 1 384.29 518.87
  L 376.29 518.90
  Q 375.61 518.90 375.91 518.28
  Z"
/>
</svg>
